<svg id="visual" viewBox="0 0 960 540" width="960" height="540" xmlns="http://www.w3.org/2000/svg" xmlns:xlink="http://www.w3.org/1999/xlink" version="1.1"><rect x="0" y="0" width="960" height="540" fill="#ffffff"></rect><defs><linearGradient id="grad1_0" x1="43.8%" y1="0%" x2="100%" y2="100%"><stop offset="14.444444444444446%" stop-color="#ffffff" stop-opacity="1"></stop><stop offset="85.55555555555554%" stop-color="#ffffff" stop-opacity="1"></stop></linearGradient></defs><defs><linearGradient id="grad2_0" x1="0%" y1="0%" x2="56.3%" y2="100%"><stop offset="14.444444444444446%" stop-color="#ffffff" stop-opacity="1"></stop><stop offset="85.55555555555554%" stop-color="#ffffff" stop-opacity="1"></stop></linearGradient></defs><g transform="translate(960, 0)"><path d="M0 405C-47.4 362.8 -94.8 320.6 -114.8 277.2C-134.8 233.7 -127.4 189 -175.4 175.4C-223.3 161.7 -326.7 179 -374.2 155C-421.7 130.9 -413.3 65.5 -405 0L0 0Z" fill="#00d1b2"></path></g><g transform="translate(0, 540)"><path d="M0 -405C30 -317.3 60.1 -229.6 77.7 -187.5C95.3 -145.5 100.4 -149 157.7 -157.7C214.9 -166.4 324.3 -180.4 374.2 -155C424.1 -129.6 414.5 -64.8 405 0L0 0Z" fill="#00d1b2"></path></g></svg>