<!--?xml version="1.0" standalone="no"?-->
              <svg id="sw-js-blob-svg" viewBox="0 0 100 100" xmlns="http://www.w3.org/2000/svg" version="1.1">
                    <defs> 
                        <linearGradient id="sw-gradient" x1="0" x2="1" y1="1" y2="0">
                            <stop id="stop1" stop-color="rgba(0, 209, 178, 1)" offset="0%"></stop>
                            <stop id="stop2" stop-color="rgba(0, 209, 178, 1)" offset="100%"></stop>
                        </linearGradient>
                    </defs>
                <path fill="url(#sw-gradient)" d="M19.5,-29.2C25.8,-26.3,31.9,-21.8,34.3,-15.9C36.7,-9.9,35.6,-2.5,34.8,5.2C34,12.9,33.6,20.8,29.5,25.4C25.3,30.1,17.5,31.4,10,33.3C2.5,35.1,-4.6,37.5,-12.3,37.3C-19.9,37.1,-28.1,34.3,-32.1,28.5C-36.1,22.7,-35.9,13.9,-36.6,5.6C-37.3,-2.7,-38.9,-10.6,-37.4,-18.3C-35.8,-26.1,-31.2,-33.7,-24.4,-36.4C-17.7,-39.1,-8.8,-37,-1.1,-35.2C6.6,-33.5,13.2,-32.2,19.5,-29.2Z" width="100%" height="100%" transform="translate(50 50)" stroke-width="0" style="transition: all 0.3s ease 0s;" stroke="url(#sw-gradient)"></path>
              </svg>